<svg xmlns="http://www.w3.org/2000/svg" width="321.437" height="316.875" viewBox="0 0 321.437 316.875">
  <defs>
    <style>
      .cls-1 {
        fill-rule: evenodd;
      }
    </style>
  </defs>
  <path id="aperture.svg" class="cls-1" d="M286.954,92.287a1,1,0,0,0-.708-0.412l-2.319-.482a0.916,0.916,0,0,0-1.225.8l-0.694,3.333L276.5,94.382a0.916,0.916,0,0,0-1.225.8L274.8,97.5a0.915,0.915,0,0,0,.8,1.225l5.506,1.146-4.538,21.807a0.916,0.916,0,0,0,.8,1.226l2.319,0.482a0.915,0.915,0,0,0,1.225-.8L287.049,93.1A1,1,0,0,0,286.954,92.287Zm2.3,30.2-0.74,2.25a0.917,0.917,0,0,0,.661,1.308l2.25,0.739a0.916,0.916,0,0,0,1.308-.661l0.739-2.25a0.915,0.915,0,0,0-.661-1.308l-2.25-.739A0.916,0.916,0,0,0,289.249,122.491Zm32.825,4.586a1,1,0,0,0-.583-0.575l-3.056-1.5,4.66-9.5a0.916,0.916,0,0,0-.474-1.387l-2.125-1.043a0.917,0.917,0,0,0-1.387.474l-4.661,9.5-7.773-3.813,15.041-13.269a0.8,0.8,0,0,0-.193-1.455l-2.425-1.189a1.2,1.2,0,0,0-1.422.209l-14.729,12.886a5.059,5.059,0,0,0-1.328,1.615c-0.864,1.761-.322,3.345,1.6,4.291l9.334,4.579-3.129,6.378a0.915,0.915,0,0,0,.474,1.386l2.126,1.043a0.915,0.915,0,0,0,1.386-.474l3.129-6.378,3.056,1.5a0.917,0.917,0,0,0,1.387-.474l0.977-1.993A1,1,0,0,0,322.074,127.077Zm31.868,33.586-4.872,3.616a0.915,0.915,0,0,0-.215,1.449l9.967,13.428a0.915,0.915,0,0,0,1.449.215l1.782-1.323a0.915,0.915,0,0,0,.215-1.449l-7.938-10.7,1.9-1.411c1.366-1.014,2.063-1.255,3.585-.818l11.378,3.35c2.734,0.828,4.128.346,6.3-1.263l3.981-2.955a3.634,3.634,0,0,0,.881-5.952l-5.556-7.486a3.633,3.633,0,0,0-5.952-.881l-2.882,2.138a0.916,0.916,0,0,0-.215,1.45l1.412,1.9a0.914,0.914,0,0,0,1.449.214l2.852-2.116,5.336,7.189-3.506,2.6c-1.485,1.1-2.034,1.233-3.556.8l-11.489-3.313C357.453,158.564,356.081,159.075,353.942,160.663Zm29.031,57.788-5.993.953a0.915,0.915,0,0,0-.86,1.186l2.627,16.518a0.916,0.916,0,0,0,1.186.861l2.193-.349a0.916,0.916,0,0,0,.861-1.186l-2.093-13.156,2.339-.372c1.681-.268,2.41-0.159,3.558.933l8.541,8.233c2.042,2,3.5,2.216,6.168,1.792l4.9-.779a3.635,3.635,0,0,0,3.534-4.872L408.466,219a3.634,3.634,0,0,0-4.871-3.534l-3.545.564a0.916,0.916,0,0,0-.861,1.186l0.372,2.339a0.916,0.916,0,0,0,1.186.86l3.509-.558,1.407,8.844-4.313.686c-1.827.291-2.373,0.153-3.521-.939l-8.657-8.252C387.057,218.213,385.605,218.032,382.973,218.451Zm-0.641,25.633-2.367.047a0.915,0.915,0,0,0-1.015,1.056L379,247.554a0.916,0.916,0,0,0,1.057,1.015l2.367-.047a0.916,0.916,0,0,0,1.015-1.056l-0.047-2.367A0.916,0.916,0,0,0,382.332,244.084Zm9.978,30.37,1.515-2.271,0.5,1.7c0.706,2.4,2.3,3.383,4.721,3.687l5.47,0.687a3.635,3.635,0,0,0,4.752-3.692l1.318-10.5a3.635,3.635,0,0,0-3.692-4.752l-5.287-.663c-2.423-.3-4.309.167-5.54,2.25l-0.9,1.528-0.948-2.543c-0.844-2.194-2.638-3.053-4.987-3.348l-5.764-.724a3.635,3.635,0,0,0-4.752,3.692L377.268,271a3.633,3.633,0,0,0,3.692,4.751l5.69,0.715C389,276.761,391.024,276.381,392.31,274.454ZM406.3,263.717l-1.272,10.133-5.066-.636a2.652,2.652,0,0,1-2.514-1.956l-1.233-3.549,1.874-3.046c0.937-1.523,1.676-1.766,3.145-1.582Zm-24.75,7.633,1.4-11.123,5.727,0.718a2.8,2.8,0,0,1,2.468,1.727l1.87,4.113-2.916,4.221a2.726,2.726,0,0,1-2.819,1.063Zm-22.339,67.8a1,1,0,0,0,.659-0.487l1.957-2.785,8.658,6.083a0.915,0.915,0,0,0,1.443-.252l1.361-1.937a0.916,0.916,0,0,0-.252-1.444l-8.658-6.083,4.977-7.084,10.764,16.923a0.8,0.8,0,0,0,1.467.036l1.553-2.21a1.2,1.2,0,0,0,.015-1.436L372.72,321.916a5.063,5.063,0,0,0-1.389-1.564c-1.6-1.127-3.254-.839-4.488.917l-5.977,8.507-5.812-4.084a0.915,0.915,0,0,0-1.443.252l-1.362,1.937a0.917,0.917,0,0,0,.252,1.443l5.813,4.084-1.957,2.786a0.915,0.915,0,0,0,.252,1.443l1.816,1.276A1,1,0,0,0,359.21,339.148Zm-45.495,43.128,8.563-4.464,4.293,8.234-10.1,5.268a0.915,0.915,0,0,0-.44,1.4l1.026,1.968a0.915,0.915,0,0,0,1.4.44l10.268-5.354a3.634,3.634,0,0,0,1.806-5.74l-4.328-8.3a3.634,3.634,0,0,0-5.74-1.805l-8.562,4.464-4.636-8.891,9.514-4.96,1.642,3.149a0.915,0.915,0,0,0,1.4.44l2.1-1.095a0.915,0.915,0,0,0,.44-1.4l-1.659-3.182a3.633,3.633,0,0,0-5.74-1.806l-9.842,5.131a3.634,3.634,0,0,0-1.805,5.74l4.669,8.956A3.633,3.633,0,0,0,313.715,382.276Zm-17.479-9.15-0.79-2.233a0.915,0.915,0,0,0-1.321-.631l-2.233.789a0.915,0.915,0,0,0-.631,1.322l0.789,2.232a0.915,0.915,0,0,0,1.322.632l2.232-.789A0.916,0.916,0,0,0,296.236,373.126Zm-26.493,21.431a4.423,4.423,0,0,0,3.387.353l10.345-2.031,1.789,9.111-9.438,1.853-0.684-3.485a0.916,0.916,0,0,0-1.216-.817L271.6,400a0.915,0.915,0,0,0-.817,1.216l0.691,3.521a3.633,3.633,0,0,0,4.994,3.355l9.8-1.924a3.633,3.633,0,0,0,3.355-4.994l-4.56-23.232a3.634,3.634,0,0,0-4.994-3.355l-10.528,2.066a3.634,3.634,0,0,0-3.355,4.994l1.946,9.91A4.415,4.415,0,0,0,269.743,394.557Zm0.81-13.731,10.165-2,1.931,9.838-10.164,2ZM200.662,384.9l1.978,1.883-1.763.195c-2.487.284-3.728,1.684-4.443,4.02l-1.614,5.272a3.635,3.635,0,0,0,2.823,5.315l10.12,3.1a3.635,3.635,0,0,0,5.316-2.824l1.56-5.1c0.715-2.336.573-4.275-1.268-5.845l-1.351-1.149,2.668-.5c2.307-.455,3.461-2.076,4.154-4.34l1.7-5.556a3.635,3.635,0,0,0-2.824-5.315l-11.075-3.391a3.635,3.635,0,0,0-5.315,2.824l-1.679,5.484C198.956,381.245,198.984,383.3,200.662,384.9Zm8.181,15.625-9.766-2.99,1.5-4.883a2.652,2.652,0,0,1,2.359-2.142l3.707-.607,2.681,2.369c1.34,1.184,1.453,1.954,1.019,3.37Zm-3.279-25.7,10.722,3.283-1.69,5.52a2.8,2.8,0,0,1-2.125,2.136l-4.373,1.138-3.659-3.6a2.724,2.724,0,0,1-.565-2.959ZM136.548,363.2a1,1,0,0,0,.387.722l1.722,1.625a0.916,0.916,0,0,0,1.464-.043l2.336-2.475,4.089,3.86a0.915,0.915,0,0,0,1.464-.043l1.625-1.721a0.915,0.915,0,0,0-.042-1.464L145.5,359.8l15.285-16.194a0.916,0.916,0,0,0-.042-1.465l-1.722-1.625a0.916,0.916,0,0,0-1.464.043l-20.668,21.9A1,1,0,0,0,136.548,363.2Zm-17.284-20.259a1,1,0,0,0,.264.775l1.431,1.886a0.917,0.917,0,0,0,1.452.2l2.711-2.058,3.4,4.478a0.916,0.916,0,0,0,1.451.2l1.886-1.432a0.915,0.915,0,0,0,.2-1.451l-3.4-4.479L146.4,327.594a0.917,0.917,0,0,0,.2-1.452l-1.432-1.885a0.916,0.916,0,0,0-1.451-.2l-23.984,18.209A1,1,0,0,0,119.264,342.943ZM95.479,294.281a1,1,0,0,0-.009.819l0.724,2.255a0.916,0.916,0,0,0,1.3.67l3.241-1.04,1.719,5.355a0.915,0.915,0,0,0,1.3.67l2.255-.723a0.915,0.915,0,0,0,.67-1.3l-1.719-5.356,21.21-6.806a0.917,0.917,0,0,0,.67-1.3l-0.724-2.254a0.915,0.915,0,0,0-1.3-.67L96.14,293.8A1,1,0,0,0,95.479,294.281Zm7.838-37.679a4.413,4.413,0,0,0-.633,3.346l1.165,10.481-9.23,1.026-1.063-9.561,3.53-.392A0.917,0.917,0,0,0,98,260.357L97.74,258a0.915,0.915,0,0,0-1.144-.915l-3.567.4a3.635,3.635,0,0,0-3.759,4.7l1.1,9.928a3.634,3.634,0,0,0,4.7,3.759l23.535-2.617a3.634,3.634,0,0,0,3.759-4.7l-1.186-10.665a3.634,3.634,0,0,0-4.7-3.758l-10.039,1.116A4.418,4.418,0,0,0,103.317,256.6Zm13.619,1.948,1.145,10.3-9.966,1.108-1.145-10.3Zm2.954-50.641,5.65,2.21a0.915,0.915,0,0,0,1.342-.588l6.09-15.573a0.915,0.915,0,0,0-.587-1.342l-2.067-.808a0.915,0.915,0,0,0-1.342.587l-4.851,12.4-2.2-.863c-1.585-.619-2.159-1.082-2.6-2.6l-3.2-11.421c-0.749-2.755-1.9-3.681-4.412-4.664l-4.617-1.806a3.634,3.634,0,0,0-5.512,2.413l-3.4,8.682a3.634,3.634,0,0,0,2.413,5.512l3.342,1.307a0.915,0.915,0,0,0,1.342-.587l0.862-2.206a0.916,0.916,0,0,0-.587-1.342l-3.308-1.293,3.261-8.338,4.065,1.59c1.723,0.674,2.124,1.069,2.562,2.591l3.29,11.495C116.248,206.048,117.409,206.939,119.89,207.909Zm12.134-27.426,5.029,3.4a0.916,0.916,0,0,0,1.439-.279l9.359-13.863a0.917,0.917,0,0,0-.279-1.439l-1.84-1.242a0.917,0.917,0,0,0-1.439.279l-7.454,11.041-1.963-1.325c-1.41-.953-1.869-1.53-1.962-3.111l-0.619-11.848c-0.127-2.854-1.044-4.009-3.283-5.52L124.9,153.8a3.634,3.634,0,0,0-5.908,1.146l-5.218,7.729a3.634,3.634,0,0,0,1.146,5.908l2.975,2.008a0.914,0.914,0,0,0,1.438-.279l1.326-1.962a0.917,0.917,0,0,0-.279-1.439l-2.945-1.988,5.011-7.422,3.619,2.443c1.534,1.036,1.839,1.51,1.932,3.091l0.69,11.94C128.878,177.868,129.815,178.992,132.024,180.483Zm54.106-63.721a4.417,4.417,0,0,0-3.333.7l-4.406,2.432,2.577-10.721a4.146,4.146,0,0,0-.261-3.153c-0.733-1.328-2.044-1.788-3.858-.786l-11.792,6.509a0.916,0.916,0,0,0-.406,1.408l1.073,1.943a0.915,0.915,0,0,0,1.408.407l9.3-5.133-2.56,11.135a2.287,2.287,0,0,0,.275,1.877l1.091,1.976a0.916,0.916,0,0,0,1.408.406l8.066-4.453,4.847,8.779-9.071,5.007-1.645-2.98a0.916,0.916,0,0,0-1.408-.406l-2.073,1.144a0.916,0.916,0,0,0-.406,1.408l1.663,3.013a3.634,3.634,0,0,0,5.782,1.669l9.394-5.187a3.634,3.634,0,0,0,1.669-5.782l-4.882-8.843A4.419,4.419,0,0,0,186.13,116.762Zm16.551,4.261,1.717,5.821a0.915,0.915,0,0,0,1.287.7l16.042-4.731a0.916,0.916,0,0,0,.7-1.287L221.8,119.4a0.916,0.916,0,0,0-1.287-.7l-12.777,3.768-0.67-2.271c-0.481-1.633-.467-2.37.467-3.649l7.066-9.529c1.719-2.282,1.747-3.756.983-6.347l-1.4-4.756a3.634,3.634,0,0,0-5.285-2.878l-8.944,2.638a3.634,3.634,0,0,0-2.878,5.285l1.015,3.443a0.917,0.917,0,0,0,1.287.7l2.272-.67a0.915,0.915,0,0,0,.7-1.287l-1-3.407,8.589-2.533,1.235,4.188c0.523,1.774.457,2.334-.478,3.613l-7.07,9.646C201.92,117,201.928,118.468,202.681,121.023Z" transform="translate(-89.219 -91.375)"/>
</svg>
